%TF.GenerationSoftware,KiCad,Pcbnew,10.0.3*%
%TF.CreationDate,2026-08-30T17:14:20-06:00*%
%TF.ProjectId,power control,706f7765-7220-4636-9f6e-74726f6c2e6b,rev?*%
%TF.SameCoordinates,Original*%
%TF.FileFunction,Copper,L1,Top*%
%TF.FilePolarity,Positive*%
%FSLAX46Y46*%
G04 Gerber Fmt 4.6, Leading zero omitted, Abs format (unit mm)*
G04 Created by KiCad (PCBNEW 10.0.3) date 2026-08-30 17:14:20*
%MOMM*%
%LPD*%
G01*
G04 APERTURE LIST*
%ADD10C,0.300000*%
%TA.AperFunction,NonConductor*%
%ADD11C,0.300000*%
%TD*%
%TA.AperFunction,ViaPad*%
%ADD12C,0.600000*%
%TD*%
%TA.AperFunction,Conductor*%
%ADD13C,0.200000*%
%TD*%
G04 APERTURE END LIST*
D10*
D11*
X93340225Y-79300828D02*
X93840225Y-80800828D01*
X93840225Y-80800828D02*
X94340225Y-79300828D01*
X96840224Y-80800828D02*
X96340224Y-80086542D01*
X95983081Y-80800828D02*
X95983081Y-79300828D01*
X95983081Y-79300828D02*
X96554510Y-79300828D01*
X96554510Y-79300828D02*
X96697367Y-79372257D01*
X96697367Y-79372257D02*
X96768796Y-79443685D01*
X96768796Y-79443685D02*
X96840224Y-79586542D01*
X96840224Y-79586542D02*
X96840224Y-79800828D01*
X96840224Y-79800828D02*
X96768796Y-79943685D01*
X96768796Y-79943685D02*
X96697367Y-80015114D01*
X96697367Y-80015114D02*
X96554510Y-80086542D01*
X96554510Y-80086542D02*
X95983081Y-80086542D01*
X98054510Y-80729400D02*
X97911653Y-80800828D01*
X97911653Y-80800828D02*
X97625939Y-80800828D01*
X97625939Y-80800828D02*
X97483081Y-80729400D01*
X97483081Y-80729400D02*
X97411653Y-80586542D01*
X97411653Y-80586542D02*
X97411653Y-80015114D01*
X97411653Y-80015114D02*
X97483081Y-79872257D01*
X97483081Y-79872257D02*
X97625939Y-79800828D01*
X97625939Y-79800828D02*
X97911653Y-79800828D01*
X97911653Y-79800828D02*
X98054510Y-79872257D01*
X98054510Y-79872257D02*
X98125939Y-80015114D01*
X98125939Y-80015114D02*
X98125939Y-80157971D01*
X98125939Y-80157971D02*
X97411653Y-80300828D01*
X99411653Y-79800828D02*
X99411653Y-81015114D01*
X99411653Y-81015114D02*
X99340224Y-81157971D01*
X99340224Y-81157971D02*
X99268795Y-81229400D01*
X99268795Y-81229400D02*
X99125938Y-81300828D01*
X99125938Y-81300828D02*
X98911653Y-81300828D01*
X98911653Y-81300828D02*
X98768795Y-81229400D01*
X99411653Y-80729400D02*
X99268795Y-80800828D01*
X99268795Y-80800828D02*
X98983081Y-80800828D01*
X98983081Y-80800828D02*
X98840224Y-80729400D01*
X98840224Y-80729400D02*
X98768795Y-80657971D01*
X98768795Y-80657971D02*
X98697367Y-80515114D01*
X98697367Y-80515114D02*
X98697367Y-80086542D01*
X98697367Y-80086542D02*
X98768795Y-79943685D01*
X98768795Y-79943685D02*
X98840224Y-79872257D01*
X98840224Y-79872257D02*
X98983081Y-79800828D01*
X98983081Y-79800828D02*
X99268795Y-79800828D01*
X99268795Y-79800828D02*
X99411653Y-79872257D01*
X100768796Y-79800828D02*
X100768796Y-80800828D01*
X100125938Y-79800828D02*
X100125938Y-80586542D01*
X100125938Y-80586542D02*
X100197367Y-80729400D01*
X100197367Y-80729400D02*
X100340224Y-80800828D01*
X100340224Y-80800828D02*
X100554510Y-80800828D01*
X100554510Y-80800828D02*
X100697367Y-80729400D01*
X100697367Y-80729400D02*
X100768796Y-80657971D01*
X101697367Y-80800828D02*
X101554510Y-80729400D01*
X101554510Y-80729400D02*
X101483081Y-80586542D01*
X101483081Y-80586542D02*
X101483081Y-79300828D01*
X102911653Y-80800828D02*
X102911653Y-80015114D01*
X102911653Y-80015114D02*
X102840224Y-79872257D01*
X102840224Y-79872257D02*
X102697367Y-79800828D01*
X102697367Y-79800828D02*
X102411653Y-79800828D01*
X102411653Y-79800828D02*
X102268795Y-79872257D01*
X102911653Y-80729400D02*
X102768795Y-80800828D01*
X102768795Y-80800828D02*
X102411653Y-80800828D01*
X102411653Y-80800828D02*
X102268795Y-80729400D01*
X102268795Y-80729400D02*
X102197367Y-80586542D01*
X102197367Y-80586542D02*
X102197367Y-80443685D01*
X102197367Y-80443685D02*
X102268795Y-80300828D01*
X102268795Y-80300828D02*
X102411653Y-80229400D01*
X102411653Y-80229400D02*
X102768795Y-80229400D01*
X102768795Y-80229400D02*
X102911653Y-80157971D01*
X103411653Y-79800828D02*
X103983081Y-79800828D01*
X103625938Y-79300828D02*
X103625938Y-80586542D01*
X103625938Y-80586542D02*
X103697367Y-80729400D01*
X103697367Y-80729400D02*
X103840224Y-80800828D01*
X103840224Y-80800828D02*
X103983081Y-80800828D01*
X104697367Y-80800828D02*
X104554510Y-80729400D01*
X104554510Y-80729400D02*
X104483081Y-80657971D01*
X104483081Y-80657971D02*
X104411653Y-80515114D01*
X104411653Y-80515114D02*
X104411653Y-80086542D01*
X104411653Y-80086542D02*
X104483081Y-79943685D01*
X104483081Y-79943685D02*
X104554510Y-79872257D01*
X104554510Y-79872257D02*
X104697367Y-79800828D01*
X104697367Y-79800828D02*
X104911653Y-79800828D01*
X104911653Y-79800828D02*
X105054510Y-79872257D01*
X105054510Y-79872257D02*
X105125939Y-79943685D01*
X105125939Y-79943685D02*
X105197367Y-80086542D01*
X105197367Y-80086542D02*
X105197367Y-80515114D01*
X105197367Y-80515114D02*
X105125939Y-80657971D01*
X105125939Y-80657971D02*
X105054510Y-80729400D01*
X105054510Y-80729400D02*
X104911653Y-80800828D01*
X104911653Y-80800828D02*
X104697367Y-80800828D01*
X105840224Y-80800828D02*
X105840224Y-79800828D01*
X105840224Y-80086542D02*
X105911653Y-79943685D01*
X105911653Y-79943685D02*
X105983082Y-79872257D01*
X105983082Y-79872257D02*
X106125939Y-79800828D01*
X106125939Y-79800828D02*
X106268796Y-79800828D01*
X108197367Y-79300828D02*
X108483081Y-79300828D01*
X108483081Y-79300828D02*
X108625938Y-79372257D01*
X108625938Y-79372257D02*
X108768795Y-79515114D01*
X108768795Y-79515114D02*
X108840224Y-79800828D01*
X108840224Y-79800828D02*
X108840224Y-80300828D01*
X108840224Y-80300828D02*
X108768795Y-80586542D01*
X108768795Y-80586542D02*
X108625938Y-80729400D01*
X108625938Y-80729400D02*
X108483081Y-80800828D01*
X108483081Y-80800828D02*
X108197367Y-80800828D01*
X108197367Y-80800828D02*
X108054510Y-80729400D01*
X108054510Y-80729400D02*
X107911652Y-80586542D01*
X107911652Y-80586542D02*
X107840224Y-80300828D01*
X107840224Y-80300828D02*
X107840224Y-79800828D01*
X107840224Y-79800828D02*
X107911652Y-79515114D01*
X107911652Y-79515114D02*
X108054510Y-79372257D01*
X108054510Y-79372257D02*
X108197367Y-79300828D01*
X109483081Y-79300828D02*
X109483081Y-80515114D01*
X109483081Y-80515114D02*
X109554510Y-80657971D01*
X109554510Y-80657971D02*
X109625939Y-80729400D01*
X109625939Y-80729400D02*
X109768796Y-80800828D01*
X109768796Y-80800828D02*
X110054510Y-80800828D01*
X110054510Y-80800828D02*
X110197367Y-80729400D01*
X110197367Y-80729400D02*
X110268796Y-80657971D01*
X110268796Y-80657971D02*
X110340224Y-80515114D01*
X110340224Y-80515114D02*
X110340224Y-79300828D01*
X110840225Y-79300828D02*
X111697368Y-79300828D01*
X111268796Y-80800828D02*
X111268796Y-79300828D01*
D10*
D11*
X95554510Y-68800828D02*
X95554510Y-67300828D01*
X95554510Y-67300828D02*
X96054510Y-68372257D01*
X96054510Y-68372257D02*
X96554510Y-67300828D01*
X96554510Y-67300828D02*
X96554510Y-68800828D01*
X97554511Y-67300828D02*
X97840225Y-67300828D01*
X97840225Y-67300828D02*
X97983082Y-67372257D01*
X97983082Y-67372257D02*
X98125939Y-67515114D01*
X98125939Y-67515114D02*
X98197368Y-67800828D01*
X98197368Y-67800828D02*
X98197368Y-68300828D01*
X98197368Y-68300828D02*
X98125939Y-68586542D01*
X98125939Y-68586542D02*
X97983082Y-68729400D01*
X97983082Y-68729400D02*
X97840225Y-68800828D01*
X97840225Y-68800828D02*
X97554511Y-68800828D01*
X97554511Y-68800828D02*
X97411654Y-68729400D01*
X97411654Y-68729400D02*
X97268796Y-68586542D01*
X97268796Y-68586542D02*
X97197368Y-68300828D01*
X97197368Y-68300828D02*
X97197368Y-67800828D01*
X97197368Y-67800828D02*
X97268796Y-67515114D01*
X97268796Y-67515114D02*
X97411654Y-67372257D01*
X97411654Y-67372257D02*
X97554511Y-67300828D01*
X98768797Y-68729400D02*
X98983083Y-68800828D01*
X98983083Y-68800828D02*
X99340225Y-68800828D01*
X99340225Y-68800828D02*
X99483083Y-68729400D01*
X99483083Y-68729400D02*
X99554511Y-68657971D01*
X99554511Y-68657971D02*
X99625940Y-68515114D01*
X99625940Y-68515114D02*
X99625940Y-68372257D01*
X99625940Y-68372257D02*
X99554511Y-68229400D01*
X99554511Y-68229400D02*
X99483083Y-68157971D01*
X99483083Y-68157971D02*
X99340225Y-68086542D01*
X99340225Y-68086542D02*
X99054511Y-68015114D01*
X99054511Y-68015114D02*
X98911654Y-67943685D01*
X98911654Y-67943685D02*
X98840225Y-67872257D01*
X98840225Y-67872257D02*
X98768797Y-67729400D01*
X98768797Y-67729400D02*
X98768797Y-67586542D01*
X98768797Y-67586542D02*
X98840225Y-67443685D01*
X98840225Y-67443685D02*
X98911654Y-67372257D01*
X98911654Y-67372257D02*
X99054511Y-67300828D01*
X99054511Y-67300828D02*
X99411654Y-67300828D01*
X99411654Y-67300828D02*
X99625940Y-67372257D01*
X100768796Y-68015114D02*
X100268796Y-68015114D01*
X100268796Y-68800828D02*
X100268796Y-67300828D01*
X100268796Y-67300828D02*
X100983082Y-67300828D01*
X101554510Y-68015114D02*
X102054510Y-68015114D01*
X102268796Y-68800828D02*
X101554510Y-68800828D01*
X101554510Y-68800828D02*
X101554510Y-67300828D01*
X101554510Y-67300828D02*
X102268796Y-67300828D01*
X102697368Y-67300828D02*
X103554511Y-67300828D01*
X103125939Y-68800828D02*
X103125939Y-67300828D01*
X105983082Y-68800828D02*
X105125939Y-68800828D01*
X105554510Y-68800828D02*
X105554510Y-67300828D01*
X105554510Y-67300828D02*
X105411653Y-67515114D01*
X105411653Y-67515114D02*
X105268796Y-67657971D01*
X105268796Y-67657971D02*
X105125939Y-67729400D01*
X106554510Y-67443685D02*
X106625938Y-67372257D01*
X106625938Y-67372257D02*
X106768796Y-67300828D01*
X106768796Y-67300828D02*
X107125938Y-67300828D01*
X107125938Y-67300828D02*
X107268796Y-67372257D01*
X107268796Y-67372257D02*
X107340224Y-67443685D01*
X107340224Y-67443685D02*
X107411653Y-67586542D01*
X107411653Y-67586542D02*
X107411653Y-67729400D01*
X107411653Y-67729400D02*
X107340224Y-67943685D01*
X107340224Y-67943685D02*
X106483081Y-68800828D01*
X106483081Y-68800828D02*
X107411653Y-68800828D01*
X107840224Y-67300828D02*
X108340224Y-68800828D01*
X108340224Y-68800828D02*
X108840224Y-67300828D01*
X111268795Y-68800828D02*
X110411652Y-68800828D01*
X110840223Y-68800828D02*
X110840223Y-67300828D01*
X110840223Y-67300828D02*
X110697366Y-67515114D01*
X110697366Y-67515114D02*
X110554509Y-67657971D01*
X110554509Y-67657971D02*
X110411652Y-67729400D01*
D10*
D11*
X95554510Y-72885912D02*
X95554510Y-71385912D01*
X95554510Y-71385912D02*
X96054510Y-72457341D01*
X96054510Y-72457341D02*
X96554510Y-71385912D01*
X96554510Y-71385912D02*
X96554510Y-72885912D01*
X97554511Y-71385912D02*
X97840225Y-71385912D01*
X97840225Y-71385912D02*
X97983082Y-71457341D01*
X97983082Y-71457341D02*
X98125939Y-71600198D01*
X98125939Y-71600198D02*
X98197368Y-71885912D01*
X98197368Y-71885912D02*
X98197368Y-72385912D01*
X98197368Y-72385912D02*
X98125939Y-72671626D01*
X98125939Y-72671626D02*
X97983082Y-72814484D01*
X97983082Y-72814484D02*
X97840225Y-72885912D01*
X97840225Y-72885912D02*
X97554511Y-72885912D01*
X97554511Y-72885912D02*
X97411654Y-72814484D01*
X97411654Y-72814484D02*
X97268796Y-72671626D01*
X97268796Y-72671626D02*
X97197368Y-72385912D01*
X97197368Y-72385912D02*
X97197368Y-71885912D01*
X97197368Y-71885912D02*
X97268796Y-71600198D01*
X97268796Y-71600198D02*
X97411654Y-71457341D01*
X97411654Y-71457341D02*
X97554511Y-71385912D01*
X98768797Y-72814484D02*
X98983083Y-72885912D01*
X98983083Y-72885912D02*
X99340225Y-72885912D01*
X99340225Y-72885912D02*
X99483083Y-72814484D01*
X99483083Y-72814484D02*
X99554511Y-72743055D01*
X99554511Y-72743055D02*
X99625940Y-72600198D01*
X99625940Y-72600198D02*
X99625940Y-72457341D01*
X99625940Y-72457341D02*
X99554511Y-72314484D01*
X99554511Y-72314484D02*
X99483083Y-72243055D01*
X99483083Y-72243055D02*
X99340225Y-72171626D01*
X99340225Y-72171626D02*
X99054511Y-72100198D01*
X99054511Y-72100198D02*
X98911654Y-72028769D01*
X98911654Y-72028769D02*
X98840225Y-71957341D01*
X98840225Y-71957341D02*
X98768797Y-71814484D01*
X98768797Y-71814484D02*
X98768797Y-71671626D01*
X98768797Y-71671626D02*
X98840225Y-71528769D01*
X98840225Y-71528769D02*
X98911654Y-71457341D01*
X98911654Y-71457341D02*
X99054511Y-71385912D01*
X99054511Y-71385912D02*
X99411654Y-71385912D01*
X99411654Y-71385912D02*
X99625940Y-71457341D01*
X100768796Y-72100198D02*
X100268796Y-72100198D01*
X100268796Y-72885912D02*
X100268796Y-71385912D01*
X100268796Y-71385912D02*
X100983082Y-71385912D01*
X101554510Y-72100198D02*
X102054510Y-72100198D01*
X102268796Y-72885912D02*
X101554510Y-72885912D01*
X101554510Y-72885912D02*
X101554510Y-71385912D01*
X101554510Y-71385912D02*
X102268796Y-71385912D01*
X102697368Y-71385912D02*
X103554511Y-71385912D01*
X103125939Y-72885912D02*
X103125939Y-71385912D01*
X105983082Y-72885912D02*
X105125939Y-72885912D01*
X105554510Y-72885912D02*
X105554510Y-71385912D01*
X105554510Y-71385912D02*
X105411653Y-71600198D01*
X105411653Y-71600198D02*
X105268796Y-71743055D01*
X105268796Y-71743055D02*
X105125939Y-71814484D01*
X106554510Y-71528769D02*
X106625938Y-71457341D01*
X106625938Y-71457341D02*
X106768796Y-71385912D01*
X106768796Y-71385912D02*
X107125938Y-71385912D01*
X107125938Y-71385912D02*
X107268796Y-71457341D01*
X107268796Y-71457341D02*
X107340224Y-71528769D01*
X107340224Y-71528769D02*
X107411653Y-71671626D01*
X107411653Y-71671626D02*
X107411653Y-71814484D01*
X107411653Y-71814484D02*
X107340224Y-72028769D01*
X107340224Y-72028769D02*
X106483081Y-72885912D01*
X106483081Y-72885912D02*
X107411653Y-72885912D01*
X107840224Y-71385912D02*
X108340224Y-72885912D01*
X108340224Y-72885912D02*
X108840224Y-71385912D01*
X110411652Y-71528769D02*
X110483080Y-71457341D01*
X110483080Y-71457341D02*
X110625938Y-71385912D01*
X110625938Y-71385912D02*
X110983080Y-71385912D01*
X110983080Y-71385912D02*
X111125938Y-71457341D01*
X111125938Y-71457341D02*
X111197366Y-71528769D01*
X111197366Y-71528769D02*
X111268795Y-71671626D01*
X111268795Y-71671626D02*
X111268795Y-71814484D01*
X111268795Y-71814484D02*
X111197366Y-72028769D01*
X111197366Y-72028769D02*
X110340223Y-72885912D01*
X110340223Y-72885912D02*
X111268795Y-72885912D01*
D10*
D11*
X95340225Y-75300828D02*
X95840225Y-76800828D01*
X95840225Y-76800828D02*
X96340225Y-75300828D01*
X98840224Y-76800828D02*
X98340224Y-76086542D01*
X97983081Y-76800828D02*
X97983081Y-75300828D01*
X97983081Y-75300828D02*
X98554510Y-75300828D01*
X98554510Y-75300828D02*
X98697367Y-75372257D01*
X98697367Y-75372257D02*
X98768796Y-75443685D01*
X98768796Y-75443685D02*
X98840224Y-75586542D01*
X98840224Y-75586542D02*
X98840224Y-75800828D01*
X98840224Y-75800828D02*
X98768796Y-75943685D01*
X98768796Y-75943685D02*
X98697367Y-76015114D01*
X98697367Y-76015114D02*
X98554510Y-76086542D01*
X98554510Y-76086542D02*
X97983081Y-76086542D01*
X100054510Y-76729400D02*
X99911653Y-76800828D01*
X99911653Y-76800828D02*
X99625939Y-76800828D01*
X99625939Y-76800828D02*
X99483081Y-76729400D01*
X99483081Y-76729400D02*
X99411653Y-76586542D01*
X99411653Y-76586542D02*
X99411653Y-76015114D01*
X99411653Y-76015114D02*
X99483081Y-75872257D01*
X99483081Y-75872257D02*
X99625939Y-75800828D01*
X99625939Y-75800828D02*
X99911653Y-75800828D01*
X99911653Y-75800828D02*
X100054510Y-75872257D01*
X100054510Y-75872257D02*
X100125939Y-76015114D01*
X100125939Y-76015114D02*
X100125939Y-76157971D01*
X100125939Y-76157971D02*
X99411653Y-76300828D01*
X101411653Y-75800828D02*
X101411653Y-77015114D01*
X101411653Y-77015114D02*
X101340224Y-77157971D01*
X101340224Y-77157971D02*
X101268795Y-77229400D01*
X101268795Y-77229400D02*
X101125938Y-77300828D01*
X101125938Y-77300828D02*
X100911653Y-77300828D01*
X100911653Y-77300828D02*
X100768795Y-77229400D01*
X101411653Y-76729400D02*
X101268795Y-76800828D01*
X101268795Y-76800828D02*
X100983081Y-76800828D01*
X100983081Y-76800828D02*
X100840224Y-76729400D01*
X100840224Y-76729400D02*
X100768795Y-76657971D01*
X100768795Y-76657971D02*
X100697367Y-76515114D01*
X100697367Y-76515114D02*
X100697367Y-76086542D01*
X100697367Y-76086542D02*
X100768795Y-75943685D01*
X100768795Y-75943685D02*
X100840224Y-75872257D01*
X100840224Y-75872257D02*
X100983081Y-75800828D01*
X100983081Y-75800828D02*
X101268795Y-75800828D01*
X101268795Y-75800828D02*
X101411653Y-75872257D01*
X102768796Y-75800828D02*
X102768796Y-76800828D01*
X102125938Y-75800828D02*
X102125938Y-76586542D01*
X102125938Y-76586542D02*
X102197367Y-76729400D01*
X102197367Y-76729400D02*
X102340224Y-76800828D01*
X102340224Y-76800828D02*
X102554510Y-76800828D01*
X102554510Y-76800828D02*
X102697367Y-76729400D01*
X102697367Y-76729400D02*
X102768796Y-76657971D01*
X103697367Y-76800828D02*
X103554510Y-76729400D01*
X103554510Y-76729400D02*
X103483081Y-76586542D01*
X103483081Y-76586542D02*
X103483081Y-75300828D01*
X104911653Y-76800828D02*
X104911653Y-76015114D01*
X104911653Y-76015114D02*
X104840224Y-75872257D01*
X104840224Y-75872257D02*
X104697367Y-75800828D01*
X104697367Y-75800828D02*
X104411653Y-75800828D01*
X104411653Y-75800828D02*
X104268795Y-75872257D01*
X104911653Y-76729400D02*
X104768795Y-76800828D01*
X104768795Y-76800828D02*
X104411653Y-76800828D01*
X104411653Y-76800828D02*
X104268795Y-76729400D01*
X104268795Y-76729400D02*
X104197367Y-76586542D01*
X104197367Y-76586542D02*
X104197367Y-76443685D01*
X104197367Y-76443685D02*
X104268795Y-76300828D01*
X104268795Y-76300828D02*
X104411653Y-76229400D01*
X104411653Y-76229400D02*
X104768795Y-76229400D01*
X104768795Y-76229400D02*
X104911653Y-76157971D01*
X105411653Y-75800828D02*
X105983081Y-75800828D01*
X105625938Y-75300828D02*
X105625938Y-76586542D01*
X105625938Y-76586542D02*
X105697367Y-76729400D01*
X105697367Y-76729400D02*
X105840224Y-76800828D01*
X105840224Y-76800828D02*
X105983081Y-76800828D01*
X106697367Y-76800828D02*
X106554510Y-76729400D01*
X106554510Y-76729400D02*
X106483081Y-76657971D01*
X106483081Y-76657971D02*
X106411653Y-76515114D01*
X106411653Y-76515114D02*
X106411653Y-76086542D01*
X106411653Y-76086542D02*
X106483081Y-75943685D01*
X106483081Y-75943685D02*
X106554510Y-75872257D01*
X106554510Y-75872257D02*
X106697367Y-75800828D01*
X106697367Y-75800828D02*
X106911653Y-75800828D01*
X106911653Y-75800828D02*
X107054510Y-75872257D01*
X107054510Y-75872257D02*
X107125939Y-75943685D01*
X107125939Y-75943685D02*
X107197367Y-76086542D01*
X107197367Y-76086542D02*
X107197367Y-76515114D01*
X107197367Y-76515114D02*
X107125939Y-76657971D01*
X107125939Y-76657971D02*
X107054510Y-76729400D01*
X107054510Y-76729400D02*
X106911653Y-76800828D01*
X106911653Y-76800828D02*
X106697367Y-76800828D01*
X107840224Y-76800828D02*
X107840224Y-75800828D01*
X107840224Y-76086542D02*
X107911653Y-75943685D01*
X107911653Y-75943685D02*
X107983082Y-75872257D01*
X107983082Y-75872257D02*
X108125939Y-75800828D01*
X108125939Y-75800828D02*
X108268796Y-75800828D01*
X109911652Y-76800828D02*
X109911652Y-75300828D01*
X110625938Y-76800828D02*
X110625938Y-75300828D01*
X110625938Y-75300828D02*
X111483081Y-76800828D01*
X111483081Y-76800828D02*
X111483081Y-75300828D01*
D10*
D11*
X97054510Y-90800828D02*
X97054510Y-89300828D01*
X97054510Y-89300828D02*
X97554510Y-90372257D01*
X97554510Y-90372257D02*
X98054510Y-89300828D01*
X98054510Y-89300828D02*
X98054510Y-90800828D01*
X99054511Y-89300828D02*
X99340225Y-89300828D01*
X99340225Y-89300828D02*
X99483082Y-89372257D01*
X99483082Y-89372257D02*
X99625939Y-89515114D01*
X99625939Y-89515114D02*
X99697368Y-89800828D01*
X99697368Y-89800828D02*
X99697368Y-90300828D01*
X99697368Y-90300828D02*
X99625939Y-90586542D01*
X99625939Y-90586542D02*
X99483082Y-90729400D01*
X99483082Y-90729400D02*
X99340225Y-90800828D01*
X99340225Y-90800828D02*
X99054511Y-90800828D01*
X99054511Y-90800828D02*
X98911654Y-90729400D01*
X98911654Y-90729400D02*
X98768796Y-90586542D01*
X98768796Y-90586542D02*
X98697368Y-90300828D01*
X98697368Y-90300828D02*
X98697368Y-89800828D01*
X98697368Y-89800828D02*
X98768796Y-89515114D01*
X98768796Y-89515114D02*
X98911654Y-89372257D01*
X98911654Y-89372257D02*
X99054511Y-89300828D01*
X100268797Y-90729400D02*
X100483083Y-90800828D01*
X100483083Y-90800828D02*
X100840225Y-90800828D01*
X100840225Y-90800828D02*
X100983083Y-90729400D01*
X100983083Y-90729400D02*
X101054511Y-90657971D01*
X101054511Y-90657971D02*
X101125940Y-90515114D01*
X101125940Y-90515114D02*
X101125940Y-90372257D01*
X101125940Y-90372257D02*
X101054511Y-90229400D01*
X101054511Y-90229400D02*
X100983083Y-90157971D01*
X100983083Y-90157971D02*
X100840225Y-90086542D01*
X100840225Y-90086542D02*
X100554511Y-90015114D01*
X100554511Y-90015114D02*
X100411654Y-89943685D01*
X100411654Y-89943685D02*
X100340225Y-89872257D01*
X100340225Y-89872257D02*
X100268797Y-89729400D01*
X100268797Y-89729400D02*
X100268797Y-89586542D01*
X100268797Y-89586542D02*
X100340225Y-89443685D01*
X100340225Y-89443685D02*
X100411654Y-89372257D01*
X100411654Y-89372257D02*
X100554511Y-89300828D01*
X100554511Y-89300828D02*
X100911654Y-89300828D01*
X100911654Y-89300828D02*
X101125940Y-89372257D01*
X102268796Y-90015114D02*
X101768796Y-90015114D01*
X101768796Y-90800828D02*
X101768796Y-89300828D01*
X101768796Y-89300828D02*
X102483082Y-89300828D01*
X103054510Y-90015114D02*
X103554510Y-90015114D01*
X103768796Y-90800828D02*
X103054510Y-90800828D01*
X103054510Y-90800828D02*
X103054510Y-89300828D01*
X103054510Y-89300828D02*
X103768796Y-89300828D01*
X104197368Y-89300828D02*
X105054511Y-89300828D01*
X104625939Y-90800828D02*
X104625939Y-89300828D01*
X107411653Y-89300828D02*
X106697367Y-89300828D01*
X106697367Y-89300828D02*
X106625939Y-90015114D01*
X106625939Y-90015114D02*
X106697367Y-89943685D01*
X106697367Y-89943685D02*
X106840225Y-89872257D01*
X106840225Y-89872257D02*
X107197367Y-89872257D01*
X107197367Y-89872257D02*
X107340225Y-89943685D01*
X107340225Y-89943685D02*
X107411653Y-90015114D01*
X107411653Y-90015114D02*
X107483082Y-90157971D01*
X107483082Y-90157971D02*
X107483082Y-90515114D01*
X107483082Y-90515114D02*
X107411653Y-90657971D01*
X107411653Y-90657971D02*
X107340225Y-90729400D01*
X107340225Y-90729400D02*
X107197367Y-90800828D01*
X107197367Y-90800828D02*
X106840225Y-90800828D01*
X106840225Y-90800828D02*
X106697367Y-90729400D01*
X106697367Y-90729400D02*
X106625939Y-90657971D01*
X107911653Y-89300828D02*
X108411653Y-90800828D01*
X108411653Y-90800828D02*
X108911653Y-89300828D01*
X110411652Y-89300828D02*
X111340224Y-89300828D01*
X111340224Y-89300828D02*
X110840224Y-89872257D01*
X110840224Y-89872257D02*
X111054509Y-89872257D01*
X111054509Y-89872257D02*
X111197367Y-89943685D01*
X111197367Y-89943685D02*
X111268795Y-90015114D01*
X111268795Y-90015114D02*
X111340224Y-90157971D01*
X111340224Y-90157971D02*
X111340224Y-90515114D01*
X111340224Y-90515114D02*
X111268795Y-90657971D01*
X111268795Y-90657971D02*
X111197367Y-90729400D01*
X111197367Y-90729400D02*
X111054509Y-90800828D01*
X111054509Y-90800828D02*
X110625938Y-90800828D01*
X110625938Y-90800828D02*
X110483081Y-90729400D01*
X110483081Y-90729400D02*
X110411652Y-90657971D01*
D10*
D11*
X97054510Y-94800828D02*
X97054510Y-93300828D01*
X97054510Y-93300828D02*
X97554510Y-94372257D01*
X97554510Y-94372257D02*
X98054510Y-93300828D01*
X98054510Y-93300828D02*
X98054510Y-94800828D01*
X99054511Y-93300828D02*
X99340225Y-93300828D01*
X99340225Y-93300828D02*
X99483082Y-93372257D01*
X99483082Y-93372257D02*
X99625939Y-93515114D01*
X99625939Y-93515114D02*
X99697368Y-93800828D01*
X99697368Y-93800828D02*
X99697368Y-94300828D01*
X99697368Y-94300828D02*
X99625939Y-94586542D01*
X99625939Y-94586542D02*
X99483082Y-94729400D01*
X99483082Y-94729400D02*
X99340225Y-94800828D01*
X99340225Y-94800828D02*
X99054511Y-94800828D01*
X99054511Y-94800828D02*
X98911654Y-94729400D01*
X98911654Y-94729400D02*
X98768796Y-94586542D01*
X98768796Y-94586542D02*
X98697368Y-94300828D01*
X98697368Y-94300828D02*
X98697368Y-93800828D01*
X98697368Y-93800828D02*
X98768796Y-93515114D01*
X98768796Y-93515114D02*
X98911654Y-93372257D01*
X98911654Y-93372257D02*
X99054511Y-93300828D01*
X100268797Y-94729400D02*
X100483083Y-94800828D01*
X100483083Y-94800828D02*
X100840225Y-94800828D01*
X100840225Y-94800828D02*
X100983083Y-94729400D01*
X100983083Y-94729400D02*
X101054511Y-94657971D01*
X101054511Y-94657971D02*
X101125940Y-94515114D01*
X101125940Y-94515114D02*
X101125940Y-94372257D01*
X101125940Y-94372257D02*
X101054511Y-94229400D01*
X101054511Y-94229400D02*
X100983083Y-94157971D01*
X100983083Y-94157971D02*
X100840225Y-94086542D01*
X100840225Y-94086542D02*
X100554511Y-94015114D01*
X100554511Y-94015114D02*
X100411654Y-93943685D01*
X100411654Y-93943685D02*
X100340225Y-93872257D01*
X100340225Y-93872257D02*
X100268797Y-93729400D01*
X100268797Y-93729400D02*
X100268797Y-93586542D01*
X100268797Y-93586542D02*
X100340225Y-93443685D01*
X100340225Y-93443685D02*
X100411654Y-93372257D01*
X100411654Y-93372257D02*
X100554511Y-93300828D01*
X100554511Y-93300828D02*
X100911654Y-93300828D01*
X100911654Y-93300828D02*
X101125940Y-93372257D01*
X102268796Y-94015114D02*
X101768796Y-94015114D01*
X101768796Y-94800828D02*
X101768796Y-93300828D01*
X101768796Y-93300828D02*
X102483082Y-93300828D01*
X103054510Y-94015114D02*
X103554510Y-94015114D01*
X103768796Y-94800828D02*
X103054510Y-94800828D01*
X103054510Y-94800828D02*
X103054510Y-93300828D01*
X103054510Y-93300828D02*
X103768796Y-93300828D01*
X104197368Y-93300828D02*
X105054511Y-93300828D01*
X104625939Y-94800828D02*
X104625939Y-93300828D01*
X107411653Y-93300828D02*
X106697367Y-93300828D01*
X106697367Y-93300828D02*
X106625939Y-94015114D01*
X106625939Y-94015114D02*
X106697367Y-93943685D01*
X106697367Y-93943685D02*
X106840225Y-93872257D01*
X106840225Y-93872257D02*
X107197367Y-93872257D01*
X107197367Y-93872257D02*
X107340225Y-93943685D01*
X107340225Y-93943685D02*
X107411653Y-94015114D01*
X107411653Y-94015114D02*
X107483082Y-94157971D01*
X107483082Y-94157971D02*
X107483082Y-94515114D01*
X107483082Y-94515114D02*
X107411653Y-94657971D01*
X107411653Y-94657971D02*
X107340225Y-94729400D01*
X107340225Y-94729400D02*
X107197367Y-94800828D01*
X107197367Y-94800828D02*
X106840225Y-94800828D01*
X106840225Y-94800828D02*
X106697367Y-94729400D01*
X106697367Y-94729400D02*
X106625939Y-94657971D01*
X107911653Y-93300828D02*
X108411653Y-94800828D01*
X108411653Y-94800828D02*
X108911653Y-93300828D01*
X111197367Y-93800828D02*
X111197367Y-94800828D01*
X110840224Y-93229400D02*
X110483081Y-94300828D01*
X110483081Y-94300828D02*
X111411652Y-94300828D01*
D10*
D11*
X103054510Y-98015114D02*
X103554510Y-98015114D01*
X103768796Y-98800828D02*
X103054510Y-98800828D01*
X103054510Y-98800828D02*
X103054510Y-97300828D01*
X103054510Y-97300828D02*
X103768796Y-97300828D01*
X104340225Y-98729400D02*
X104554511Y-98800828D01*
X104554511Y-98800828D02*
X104911653Y-98800828D01*
X104911653Y-98800828D02*
X105054511Y-98729400D01*
X105054511Y-98729400D02*
X105125939Y-98657971D01*
X105125939Y-98657971D02*
X105197368Y-98515114D01*
X105197368Y-98515114D02*
X105197368Y-98372257D01*
X105197368Y-98372257D02*
X105125939Y-98229400D01*
X105125939Y-98229400D02*
X105054511Y-98157971D01*
X105054511Y-98157971D02*
X104911653Y-98086542D01*
X104911653Y-98086542D02*
X104625939Y-98015114D01*
X104625939Y-98015114D02*
X104483082Y-97943685D01*
X104483082Y-97943685D02*
X104411653Y-97872257D01*
X104411653Y-97872257D02*
X104340225Y-97729400D01*
X104340225Y-97729400D02*
X104340225Y-97586542D01*
X104340225Y-97586542D02*
X104411653Y-97443685D01*
X104411653Y-97443685D02*
X104483082Y-97372257D01*
X104483082Y-97372257D02*
X104625939Y-97300828D01*
X104625939Y-97300828D02*
X104983082Y-97300828D01*
X104983082Y-97300828D02*
X105197368Y-97372257D01*
X105840224Y-98800828D02*
X105840224Y-97300828D01*
X105840224Y-97300828D02*
X106411653Y-97300828D01*
X106411653Y-97300828D02*
X106554510Y-97372257D01*
X106554510Y-97372257D02*
X106625939Y-97443685D01*
X106625939Y-97443685D02*
X106697367Y-97586542D01*
X106697367Y-97586542D02*
X106697367Y-97800828D01*
X106697367Y-97800828D02*
X106625939Y-97943685D01*
X106625939Y-97943685D02*
X106554510Y-98015114D01*
X106554510Y-98015114D02*
X106411653Y-98086542D01*
X106411653Y-98086542D02*
X105840224Y-98086542D01*
X107340224Y-98229400D02*
X108483082Y-98229400D01*
X109054510Y-97300828D02*
X109983082Y-97300828D01*
X109983082Y-97300828D02*
X109483082Y-97872257D01*
X109483082Y-97872257D02*
X109697367Y-97872257D01*
X109697367Y-97872257D02*
X109840225Y-97943685D01*
X109840225Y-97943685D02*
X109911653Y-98015114D01*
X109911653Y-98015114D02*
X109983082Y-98157971D01*
X109983082Y-98157971D02*
X109983082Y-98515114D01*
X109983082Y-98515114D02*
X109911653Y-98657971D01*
X109911653Y-98657971D02*
X109840225Y-98729400D01*
X109840225Y-98729400D02*
X109697367Y-98800828D01*
X109697367Y-98800828D02*
X109268796Y-98800828D01*
X109268796Y-98800828D02*
X109125939Y-98729400D01*
X109125939Y-98729400D02*
X109054510Y-98657971D01*
X110554510Y-97443685D02*
X110625938Y-97372257D01*
X110625938Y-97372257D02*
X110768796Y-97300828D01*
X110768796Y-97300828D02*
X111125938Y-97300828D01*
X111125938Y-97300828D02*
X111268796Y-97372257D01*
X111268796Y-97372257D02*
X111340224Y-97443685D01*
X111340224Y-97443685D02*
X111411653Y-97586542D01*
X111411653Y-97586542D02*
X111411653Y-97729400D01*
X111411653Y-97729400D02*
X111340224Y-97943685D01*
X111340224Y-97943685D02*
X110483081Y-98800828D01*
X110483081Y-98800828D02*
X111411653Y-98800828D01*
D10*
D11*
X103911653Y-102300828D02*
X103411653Y-101586542D01*
X103054510Y-102300828D02*
X103054510Y-100800828D01*
X103054510Y-100800828D02*
X103625939Y-100800828D01*
X103625939Y-100800828D02*
X103768796Y-100872257D01*
X103768796Y-100872257D02*
X103840225Y-100943685D01*
X103840225Y-100943685D02*
X103911653Y-101086542D01*
X103911653Y-101086542D02*
X103911653Y-101300828D01*
X103911653Y-101300828D02*
X103840225Y-101443685D01*
X103840225Y-101443685D02*
X103768796Y-101515114D01*
X103768796Y-101515114D02*
X103625939Y-101586542D01*
X103625939Y-101586542D02*
X103054510Y-101586542D01*
X104840225Y-101586542D02*
X104840225Y-102300828D01*
X104340225Y-100800828D02*
X104840225Y-101586542D01*
X104840225Y-101586542D02*
X105340225Y-100800828D01*
X105840224Y-101729400D02*
X106983082Y-101729400D01*
X107483082Y-100800828D02*
X107983082Y-102300828D01*
X107983082Y-102300828D02*
X108483082Y-100800828D01*
X109840224Y-102157971D02*
X109768796Y-102229400D01*
X109768796Y-102229400D02*
X109554510Y-102300828D01*
X109554510Y-102300828D02*
X109411653Y-102300828D01*
X109411653Y-102300828D02*
X109197367Y-102229400D01*
X109197367Y-102229400D02*
X109054510Y-102086542D01*
X109054510Y-102086542D02*
X108983081Y-101943685D01*
X108983081Y-101943685D02*
X108911653Y-101657971D01*
X108911653Y-101657971D02*
X108911653Y-101443685D01*
X108911653Y-101443685D02*
X108983081Y-101157971D01*
X108983081Y-101157971D02*
X109054510Y-101015114D01*
X109054510Y-101015114D02*
X109197367Y-100872257D01*
X109197367Y-100872257D02*
X109411653Y-100800828D01*
X109411653Y-100800828D02*
X109554510Y-100800828D01*
X109554510Y-100800828D02*
X109768796Y-100872257D01*
X109768796Y-100872257D02*
X109840224Y-100943685D01*
X111340224Y-102157971D02*
X111268796Y-102229400D01*
X111268796Y-102229400D02*
X111054510Y-102300828D01*
X111054510Y-102300828D02*
X110911653Y-102300828D01*
X110911653Y-102300828D02*
X110697367Y-102229400D01*
X110697367Y-102229400D02*
X110554510Y-102086542D01*
X110554510Y-102086542D02*
X110483081Y-101943685D01*
X110483081Y-101943685D02*
X110411653Y-101657971D01*
X110411653Y-101657971D02*
X110411653Y-101443685D01*
X110411653Y-101443685D02*
X110483081Y-101157971D01*
X110483081Y-101157971D02*
X110554510Y-101015114D01*
X110554510Y-101015114D02*
X110697367Y-100872257D01*
X110697367Y-100872257D02*
X110911653Y-100800828D01*
X110911653Y-100800828D02*
X111054510Y-100800828D01*
X111054510Y-100800828D02*
X111268796Y-100872257D01*
X111268796Y-100872257D02*
X111340224Y-100943685D01*
D10*
D11*
X105054510Y-87300828D02*
X105054510Y-85800828D01*
X105054510Y-85800828D02*
X105411653Y-85800828D01*
X105411653Y-85800828D02*
X105625939Y-85872257D01*
X105625939Y-85872257D02*
X105768796Y-86015114D01*
X105768796Y-86015114D02*
X105840225Y-86157971D01*
X105840225Y-86157971D02*
X105911653Y-86443685D01*
X105911653Y-86443685D02*
X105911653Y-86657971D01*
X105911653Y-86657971D02*
X105840225Y-86943685D01*
X105840225Y-86943685D02*
X105768796Y-87086542D01*
X105768796Y-87086542D02*
X105625939Y-87229400D01*
X105625939Y-87229400D02*
X105411653Y-87300828D01*
X105411653Y-87300828D02*
X105054510Y-87300828D01*
X107411653Y-87157971D02*
X107340225Y-87229400D01*
X107340225Y-87229400D02*
X107125939Y-87300828D01*
X107125939Y-87300828D02*
X106983082Y-87300828D01*
X106983082Y-87300828D02*
X106768796Y-87229400D01*
X106768796Y-87229400D02*
X106625939Y-87086542D01*
X106625939Y-87086542D02*
X106554510Y-86943685D01*
X106554510Y-86943685D02*
X106483082Y-86657971D01*
X106483082Y-86657971D02*
X106483082Y-86443685D01*
X106483082Y-86443685D02*
X106554510Y-86157971D01*
X106554510Y-86157971D02*
X106625939Y-86015114D01*
X106625939Y-86015114D02*
X106768796Y-85872257D01*
X106768796Y-85872257D02*
X106983082Y-85800828D01*
X106983082Y-85800828D02*
X107125939Y-85800828D01*
X107125939Y-85800828D02*
X107340225Y-85872257D01*
X107340225Y-85872257D02*
X107411653Y-85943685D01*
X109911653Y-85800828D02*
X109197367Y-85800828D01*
X109197367Y-85800828D02*
X109125939Y-86515114D01*
X109125939Y-86515114D02*
X109197367Y-86443685D01*
X109197367Y-86443685D02*
X109340225Y-86372257D01*
X109340225Y-86372257D02*
X109697367Y-86372257D01*
X109697367Y-86372257D02*
X109840225Y-86443685D01*
X109840225Y-86443685D02*
X109911653Y-86515114D01*
X109911653Y-86515114D02*
X109983082Y-86657971D01*
X109983082Y-86657971D02*
X109983082Y-87015114D01*
X109983082Y-87015114D02*
X109911653Y-87157971D01*
X109911653Y-87157971D02*
X109840225Y-87229400D01*
X109840225Y-87229400D02*
X109697367Y-87300828D01*
X109697367Y-87300828D02*
X109340225Y-87300828D01*
X109340225Y-87300828D02*
X109197367Y-87229400D01*
X109197367Y-87229400D02*
X109125939Y-87157971D01*
X110411653Y-85800828D02*
X110911653Y-87300828D01*
X110911653Y-87300828D02*
X111411653Y-85800828D01*
D10*
D11*
X113054510Y-62300828D02*
X113054510Y-60800828D01*
X113054510Y-60800828D02*
X113625939Y-60800828D01*
X113625939Y-60800828D02*
X113768796Y-60872257D01*
X113768796Y-60872257D02*
X113840225Y-60943685D01*
X113840225Y-60943685D02*
X113911653Y-61086542D01*
X113911653Y-61086542D02*
X113911653Y-61300828D01*
X113911653Y-61300828D02*
X113840225Y-61443685D01*
X113840225Y-61443685D02*
X113768796Y-61515114D01*
X113768796Y-61515114D02*
X113625939Y-61586542D01*
X113625939Y-61586542D02*
X113054510Y-61586542D01*
X114768796Y-62300828D02*
X114625939Y-62229400D01*
X114625939Y-62229400D02*
X114554510Y-62157971D01*
X114554510Y-62157971D02*
X114483082Y-62015114D01*
X114483082Y-62015114D02*
X114483082Y-61586542D01*
X114483082Y-61586542D02*
X114554510Y-61443685D01*
X114554510Y-61443685D02*
X114625939Y-61372257D01*
X114625939Y-61372257D02*
X114768796Y-61300828D01*
X114768796Y-61300828D02*
X114983082Y-61300828D01*
X114983082Y-61300828D02*
X115125939Y-61372257D01*
X115125939Y-61372257D02*
X115197368Y-61443685D01*
X115197368Y-61443685D02*
X115268796Y-61586542D01*
X115268796Y-61586542D02*
X115268796Y-62015114D01*
X115268796Y-62015114D02*
X115197368Y-62157971D01*
X115197368Y-62157971D02*
X115125939Y-62229400D01*
X115125939Y-62229400D02*
X114983082Y-62300828D01*
X114983082Y-62300828D02*
X114768796Y-62300828D01*
X115768796Y-61300828D02*
X116054511Y-62300828D01*
X116054511Y-62300828D02*
X116340225Y-61586542D01*
X116340225Y-61586542D02*
X116625939Y-62300828D01*
X116625939Y-62300828D02*
X116911653Y-61300828D01*
X118054511Y-62229400D02*
X117911654Y-62300828D01*
X117911654Y-62300828D02*
X117625940Y-62300828D01*
X117625940Y-62300828D02*
X117483082Y-62229400D01*
X117483082Y-62229400D02*
X117411654Y-62086542D01*
X117411654Y-62086542D02*
X117411654Y-61515114D01*
X117411654Y-61515114D02*
X117483082Y-61372257D01*
X117483082Y-61372257D02*
X117625940Y-61300828D01*
X117625940Y-61300828D02*
X117911654Y-61300828D01*
X117911654Y-61300828D02*
X118054511Y-61372257D01*
X118054511Y-61372257D02*
X118125940Y-61515114D01*
X118125940Y-61515114D02*
X118125940Y-61657971D01*
X118125940Y-61657971D02*
X117411654Y-61800828D01*
X118768796Y-62300828D02*
X118768796Y-61300828D01*
X118768796Y-61586542D02*
X118840225Y-61443685D01*
X118840225Y-61443685D02*
X118911654Y-61372257D01*
X118911654Y-61372257D02*
X119054511Y-61300828D01*
X119054511Y-61300828D02*
X119197368Y-61300828D01*
X120768796Y-62229400D02*
X120983082Y-62300828D01*
X120983082Y-62300828D02*
X121340224Y-62300828D01*
X121340224Y-62300828D02*
X121483082Y-62229400D01*
X121483082Y-62229400D02*
X121554510Y-62157971D01*
X121554510Y-62157971D02*
X121625939Y-62015114D01*
X121625939Y-62015114D02*
X121625939Y-61872257D01*
X121625939Y-61872257D02*
X121554510Y-61729400D01*
X121554510Y-61729400D02*
X121483082Y-61657971D01*
X121483082Y-61657971D02*
X121340224Y-61586542D01*
X121340224Y-61586542D02*
X121054510Y-61515114D01*
X121054510Y-61515114D02*
X120911653Y-61443685D01*
X120911653Y-61443685D02*
X120840224Y-61372257D01*
X120840224Y-61372257D02*
X120768796Y-61229400D01*
X120768796Y-61229400D02*
X120768796Y-61086542D01*
X120768796Y-61086542D02*
X120840224Y-60943685D01*
X120840224Y-60943685D02*
X120911653Y-60872257D01*
X120911653Y-60872257D02*
X121054510Y-60800828D01*
X121054510Y-60800828D02*
X121411653Y-60800828D01*
X121411653Y-60800828D02*
X121625939Y-60872257D01*
X122911653Y-61300828D02*
X122911653Y-62300828D01*
X122268795Y-61300828D02*
X122268795Y-62086542D01*
X122268795Y-62086542D02*
X122340224Y-62229400D01*
X122340224Y-62229400D02*
X122483081Y-62300828D01*
X122483081Y-62300828D02*
X122697367Y-62300828D01*
X122697367Y-62300828D02*
X122840224Y-62229400D01*
X122840224Y-62229400D02*
X122911653Y-62157971D01*
X123625938Y-61300828D02*
X123625938Y-62800828D01*
X123625938Y-61372257D02*
X123768796Y-61300828D01*
X123768796Y-61300828D02*
X124054510Y-61300828D01*
X124054510Y-61300828D02*
X124197367Y-61372257D01*
X124197367Y-61372257D02*
X124268796Y-61443685D01*
X124268796Y-61443685D02*
X124340224Y-61586542D01*
X124340224Y-61586542D02*
X124340224Y-62015114D01*
X124340224Y-62015114D02*
X124268796Y-62157971D01*
X124268796Y-62157971D02*
X124197367Y-62229400D01*
X124197367Y-62229400D02*
X124054510Y-62300828D01*
X124054510Y-62300828D02*
X123768796Y-62300828D01*
X123768796Y-62300828D02*
X123625938Y-62229400D01*
X124983081Y-61300828D02*
X124983081Y-62800828D01*
X124983081Y-61372257D02*
X125125939Y-61300828D01*
X125125939Y-61300828D02*
X125411653Y-61300828D01*
X125411653Y-61300828D02*
X125554510Y-61372257D01*
X125554510Y-61372257D02*
X125625939Y-61443685D01*
X125625939Y-61443685D02*
X125697367Y-61586542D01*
X125697367Y-61586542D02*
X125697367Y-62015114D01*
X125697367Y-62015114D02*
X125625939Y-62157971D01*
X125625939Y-62157971D02*
X125554510Y-62229400D01*
X125554510Y-62229400D02*
X125411653Y-62300828D01*
X125411653Y-62300828D02*
X125125939Y-62300828D01*
X125125939Y-62300828D02*
X124983081Y-62229400D01*
X126554510Y-62300828D02*
X126411653Y-62229400D01*
X126411653Y-62229400D02*
X126340224Y-62086542D01*
X126340224Y-62086542D02*
X126340224Y-60800828D01*
X126983081Y-61300828D02*
X127340224Y-62300828D01*
X127697367Y-61300828D02*
X127340224Y-62300828D01*
X127340224Y-62300828D02*
X127197367Y-62657971D01*
X127197367Y-62657971D02*
X127125938Y-62729400D01*
X127125938Y-62729400D02*
X126983081Y-62800828D01*
D10*
D11*
X113054510Y-68229400D02*
X114197368Y-68229400D01*
X113625939Y-68800828D02*
X113625939Y-67657971D01*
D10*
D11*
X113054510Y-72229400D02*
X114197368Y-72229400D01*
X113625939Y-72800828D02*
X113625939Y-71657971D01*
D10*
D11*
X113054510Y-76229400D02*
X114197368Y-76229400D01*
X113625939Y-76800828D02*
X113625939Y-75657971D01*
D10*
D11*
X113054510Y-80229400D02*
X114197368Y-80229400D01*
X113625939Y-80800828D02*
X113625939Y-79657971D01*
D10*
D11*
X113054510Y-86229400D02*
X114197368Y-86229400D01*
X113625939Y-86800828D02*
X113625939Y-85657971D01*
D10*
D11*
X113054510Y-90229400D02*
X114197368Y-90229400D01*
X113625939Y-90800828D02*
X113625939Y-89657971D01*
D10*
D11*
X113054510Y-94229400D02*
X114197368Y-94229400D01*
X113625939Y-94800828D02*
X113625939Y-93657971D01*
D10*
D11*
X113054510Y-98229400D02*
X114197368Y-98229400D01*
X113625939Y-98800828D02*
X113625939Y-97657971D01*
D10*
D11*
X113054510Y-101729400D02*
X114197368Y-101729400D01*
X113625939Y-102300828D02*
X113625939Y-101157971D01*
D10*
D11*
X116554510Y-66300828D02*
X116554510Y-64800828D01*
X116554510Y-64800828D02*
X116911653Y-64800828D01*
X116911653Y-64800828D02*
X117125939Y-64872257D01*
X117125939Y-64872257D02*
X117268796Y-65015114D01*
X117268796Y-65015114D02*
X117340225Y-65157971D01*
X117340225Y-65157971D02*
X117411653Y-65443685D01*
X117411653Y-65443685D02*
X117411653Y-65657971D01*
X117411653Y-65657971D02*
X117340225Y-65943685D01*
X117340225Y-65943685D02*
X117268796Y-66086542D01*
X117268796Y-66086542D02*
X117125939Y-66229400D01*
X117125939Y-66229400D02*
X116911653Y-66300828D01*
X116911653Y-66300828D02*
X116554510Y-66300828D01*
X118911653Y-66157971D02*
X118840225Y-66229400D01*
X118840225Y-66229400D02*
X118625939Y-66300828D01*
X118625939Y-66300828D02*
X118483082Y-66300828D01*
X118483082Y-66300828D02*
X118268796Y-66229400D01*
X118268796Y-66229400D02*
X118125939Y-66086542D01*
X118125939Y-66086542D02*
X118054510Y-65943685D01*
X118054510Y-65943685D02*
X117983082Y-65657971D01*
X117983082Y-65657971D02*
X117983082Y-65443685D01*
X117983082Y-65443685D02*
X118054510Y-65157971D01*
X118054510Y-65157971D02*
X118125939Y-65015114D01*
X118125939Y-65015114D02*
X118268796Y-64872257D01*
X118268796Y-64872257D02*
X118483082Y-64800828D01*
X118483082Y-64800828D02*
X118625939Y-64800828D01*
X118625939Y-64800828D02*
X118840225Y-64872257D01*
X118840225Y-64872257D02*
X118911653Y-64943685D01*
X121483082Y-66300828D02*
X120625939Y-66300828D01*
X121054510Y-66300828D02*
X121054510Y-64800828D01*
X121054510Y-64800828D02*
X120911653Y-65015114D01*
X120911653Y-65015114D02*
X120768796Y-65157971D01*
X120768796Y-65157971D02*
X120625939Y-65229400D01*
X122054510Y-64943685D02*
X122125938Y-64872257D01*
X122125938Y-64872257D02*
X122268796Y-64800828D01*
X122268796Y-64800828D02*
X122625938Y-64800828D01*
X122625938Y-64800828D02*
X122768796Y-64872257D01*
X122768796Y-64872257D02*
X122840224Y-64943685D01*
X122840224Y-64943685D02*
X122911653Y-65086542D01*
X122911653Y-65086542D02*
X122911653Y-65229400D01*
X122911653Y-65229400D02*
X122840224Y-65443685D01*
X122840224Y-65443685D02*
X121983081Y-66300828D01*
X121983081Y-66300828D02*
X122911653Y-66300828D01*
X123340224Y-64800828D02*
X123840224Y-66300828D01*
X123840224Y-66300828D02*
X124340224Y-64800828D01*
D10*
D11*
X122554510Y-68229400D02*
X123697368Y-68229400D01*
D10*
D11*
X122554510Y-72229400D02*
X123697368Y-72229400D01*
D10*
D11*
X122554510Y-76229400D02*
X123697368Y-76229400D01*
D10*
D11*
X122554510Y-80229400D02*
X123697368Y-80229400D01*
D10*
D11*
X122554510Y-86229400D02*
X123697368Y-86229400D01*
D10*
D11*
X122554510Y-90229400D02*
X123697368Y-90229400D01*
D10*
D11*
X122554510Y-94229400D02*
X123697368Y-94229400D01*
D10*
D11*
X122554510Y-98229400D02*
X123697368Y-98229400D01*
D10*
D11*
X122554510Y-101729400D02*
X123697368Y-101729400D01*
D12*
%TO.N,*%
X124500000Y-94500000D03*
X115000000Y-76500000D03*
X115000000Y-94500000D03*
X115000000Y-90500000D03*
X124500000Y-80500000D03*
X124500000Y-68500000D03*
X115000000Y-68500000D03*
X124500000Y-86500000D03*
X115000000Y-72500000D03*
X124500000Y-72500000D03*
X124500000Y-90500000D03*
X124500000Y-76500000D03*
X115000000Y-86500000D03*
X124500000Y-102000000D03*
X115000000Y-80500000D03*
X124500000Y-98500000D03*
X115000000Y-102000000D03*
X115000000Y-98500000D03*
%TD*%
%TO.N,*%
D13*
X115000000Y-98500000D02*
X116000000Y-99500000D01*
X115500000Y-90000000D02*
X115000000Y-90500000D01*
X115600000Y-75900000D02*
X115424264Y-76075736D01*
X115000000Y-90500000D02*
X115500000Y-91000000D01*
X125100000Y-72251471D02*
X125100000Y-75900000D01*
X124500000Y-98500000D02*
X124500000Y-102000000D01*
X124500000Y-71900000D02*
X124748529Y-71900000D01*
X124500000Y-90500000D02*
X124500000Y-94500000D01*
X124500000Y-68500000D02*
X124500000Y-71900000D01*
X115000000Y-68500000D02*
X115000000Y-71900000D01*
X115248529Y-71900000D02*
X115600000Y-72251471D01*
X115600000Y-72251471D02*
X115600000Y-75900000D01*
X124500000Y-80500000D02*
X124500000Y-86500000D01*
X115000000Y-80500000D02*
X115000000Y-86500000D01*
X124748529Y-71900000D02*
X125100000Y-72251471D01*
X115000000Y-86500000D02*
X115500000Y-87000000D01*
X116000000Y-101000000D02*
X115000000Y-102000000D01*
X115000000Y-94500000D02*
X115000000Y-98500000D01*
X115000000Y-71900000D02*
X115248529Y-71900000D01*
X116000000Y-99500000D02*
X116000000Y-101000000D01*
X115500000Y-94000000D02*
X115000000Y-94500000D01*
X125100000Y-75900000D02*
X124924264Y-76075736D01*
X124500000Y-86500000D02*
X124500000Y-90500000D01*
X115500000Y-87000000D02*
X115500000Y-90000000D01*
X115500000Y-91000000D02*
X115500000Y-94000000D01*
X124500000Y-94500000D02*
X124500000Y-98500000D01*
%TD*%
M02*
